<svg width="165" height="178" viewBox="0 0 165 178" fill="none" xmlns="http://www.w3.org/2000/svg">
<g filter="url(#filter0_i)">
<rect x="0.5" y="0.5" width="164" height="177" rx="73.5" stroke="#3BC6C5"/>
</g>
<g clip-path="url(#clip0)">
<path d="M127.951 103.814C127.725 99.3454 126.818 94.3907 125.458 89.7274C124.098 85.2584 122.397 81.0808 120.357 77.8748C112.423 65.925 103.809 67.7709 93.4946 70.1026C90.2076 70.7826 86.6939 71.5599 83.0669 71.8513H81.9334C78.3064 71.5599 74.7927 70.7826 71.5057 70.1026C61.1914 67.8681 52.5772 65.925 44.6431 77.9719C42.6029 81.1779 40.7894 85.3555 39.5426 89.8245C38.1825 94.4878 37.2757 99.4426 37.049 103.912C36.8223 108.866 37.3891 112.461 38.6359 114.987C39.8826 117.319 41.6962 118.776 44.0764 119.359C46.2299 119.845 48.7235 119.65 51.3304 118.679C55.7509 117.124 60.8514 113.821 65.8385 109.838C69.3522 106.923 75.9262 105.466 82.5002 105.466C89.0741 105.466 95.6481 106.923 99.1618 109.838C104.149 113.821 109.249 117.124 113.67 118.679C116.277 119.553 118.77 119.845 120.924 119.359C123.191 118.776 125.118 117.416 126.364 114.89C127.611 112.461 128.178 108.866 127.951 103.814ZM122.511 113.53C121.831 114.89 120.924 115.667 119.79 115.958C118.544 116.25 116.957 116.056 115.143 115.473C111.176 114.113 106.529 111.101 101.995 107.409C97.6883 103.717 90.0942 101.871 82.5002 101.871C74.9061 101.871 67.312 103.717 62.8916 107.215C58.2444 110.907 53.5973 114.015 49.7436 115.278C47.9301 115.861 46.3433 116.153 45.0965 115.764C43.963 115.473 43.0563 114.696 42.3762 113.335C41.4695 111.489 41.0161 108.478 41.2428 104.009C41.4695 99.8312 42.2629 95.0707 43.623 90.6017C44.8698 86.4242 46.4566 82.5381 48.3835 79.6235C54.6174 70.0054 61.8715 71.5599 70.4856 73.5029C73.9993 74.2801 77.6263 75.0574 81.5934 75.3488C81.7067 75.3488 81.7067 75.3488 81.8201 75.3488H83.0669C83.1802 75.3488 83.1802 75.3488 83.2936 75.3488C87.374 75.0574 91.001 74.2801 94.5147 73.5029C103.129 71.657 110.383 70.0054 116.617 79.6235C118.544 82.5381 120.131 86.327 121.377 90.6017C122.624 95.0707 123.531 99.7341 123.758 104.009C123.984 108.478 123.531 111.489 122.511 113.53Z" fill="#3BC6C5"/>
<path d="M72.0725 84.8698C70.939 83.9954 69.5789 83.3153 67.9921 83.2182C67.8787 81.9552 67.1987 80.6922 66.1786 79.8178L66.0652 79.7207C64.8184 78.652 63.2316 78.0691 61.4181 78.0691C59.6046 78.0691 57.9044 78.7492 56.771 79.7207C55.7509 80.5951 54.9575 81.858 54.8441 83.2182C53.2573 83.3153 51.8972 83.8982 50.7637 84.7726L50.6504 84.8698C49.4036 85.9384 48.7235 87.2986 48.7235 88.853C48.7235 90.4074 49.5169 91.8647 50.6504 92.8363C51.7838 93.8078 53.1439 94.3907 54.8441 94.4878C54.9575 95.848 55.6375 97.111 56.771 97.9853C58.0178 99.054 59.6046 99.6369 61.4181 99.6369C63.2316 99.6369 64.9318 98.9568 66.0652 97.9853C67.0853 97.0138 67.8787 95.848 67.9921 94.4878C69.5789 94.3907 71.0524 93.8078 72.0725 92.8363C73.3193 91.7676 73.9993 90.4074 73.9993 88.853C73.9993 87.2986 73.2059 85.8413 72.0725 84.8698ZM69.2389 90.3103C68.7855 90.6989 68.2188 90.8932 67.5387 90.8932H65.9519C64.8184 90.8932 63.7983 91.6704 63.7983 92.7391V94.0021C63.7983 94.585 63.5716 95.0708 63.1183 95.4594C62.6649 95.848 62.0982 96.0423 61.4181 96.0423C60.738 96.0423 60.1713 95.848 59.7179 95.4594C59.2645 95.0708 59.0379 94.585 59.0379 94.0021V92.6419C59.0379 91.6704 58.1311 90.796 56.8843 90.796H55.2975C54.6174 90.796 54.0507 90.6017 53.5973 90.2131C53.2573 89.9217 52.9173 89.4359 52.9173 88.853C52.9173 88.2701 53.1439 87.7843 53.5973 87.3957C53.5973 87.3957 53.5973 87.3957 53.7107 87.2986C54.164 87.0071 54.7308 86.8128 55.2975 86.8128H56.8843C58.0178 86.8128 59.0379 86.0356 59.0379 84.9669V83.6068C59.0379 83.0239 59.2645 82.5381 59.7179 82.1495C60.1713 81.7609 60.738 81.5666 61.4181 81.5666C62.0982 81.5666 62.6649 81.7609 63.1183 82.1495C63.1183 82.1495 63.1183 82.1495 63.2316 82.2466C63.5716 82.6353 63.7983 83.121 63.7983 83.6068V84.9669C63.7983 85.9384 64.7051 86.8128 65.9519 86.8128H67.5387C68.2188 86.8128 68.7855 87.0071 69.2389 87.3957C69.6922 87.7843 69.9189 88.2701 69.9189 88.853C69.9189 89.4359 69.6922 89.9217 69.2389 90.3103Z" fill="#3BC6C5"/>
<path d="M102.222 85.3555C104.413 85.3555 106.189 83.8331 106.189 81.9552C106.189 80.0772 104.413 78.5548 102.222 78.5548C100.031 78.5548 98.255 80.0772 98.255 81.9552C98.255 83.8331 100.031 85.3555 102.222 85.3555Z" fill="#3BC6C5"/>
<path d="M102.222 99.1511C104.413 99.1511 106.189 97.6288 106.189 95.7508C106.189 93.8728 104.413 92.3505 102.222 92.3505C100.031 92.3505 98.255 93.8728 98.255 95.7508C98.255 97.6288 100.031 99.1511 102.222 99.1511Z" fill="#3BC6C5"/>
<path d="M94.1746 92.2533C96.3656 92.2533 98.1417 90.7309 98.1417 88.853C98.1417 86.975 96.3656 85.4526 94.1746 85.4526C91.9837 85.4526 90.2076 86.975 90.2076 88.853C90.2076 90.7309 91.9837 92.2533 94.1746 92.2533Z" fill="#3BC6C5"/>
<path d="M110.27 92.2533C112.46 92.2533 114.237 90.7309 114.237 88.853C114.237 86.975 112.46 85.4526 110.27 85.4526C108.079 85.4526 106.302 86.975 106.302 88.853C106.302 90.7309 108.079 92.2533 110.27 92.2533Z" fill="#3BC6C5"/>
</g>
<defs>
<filter id="filter0_i" x="0" y="0" width="165" height="182" filterUnits="userSpaceOnUse" color-interpolation-filters="sRGB">
<feFlood flood-opacity="0" result="BackgroundImageFix"/>
<feBlend mode="normal" in="SourceGraphic" in2="BackgroundImageFix" result="shape"/>
<feColorMatrix in="SourceAlpha" type="matrix" values="0 0 0 0 0 0 0 0 0 0 0 0 0 0 0 0 0 0 127 0" result="hardAlpha"/>
<feOffset dy="4"/>
<feGaussianBlur stdDeviation="2"/>
<feComposite in2="hardAlpha" operator="arithmetic" k2="-1" k3="1"/>
<feColorMatrix type="matrix" values="0 0 0 0 0 0 0 0 0 0 0 0 0 0 0 0 0 0 0.25 0"/>
<feBlend mode="normal" in2="shape" result="effect1_innerShadow"/>
</filter>
<clipPath id="clip0">
<rect width="91" height="78" fill="white" transform="translate(37 55)"/>
</clipPath>
</defs>
</svg>
